<mxfile host="app.diagrams.net" modified="2024-05-06T08:19:40.852Z" agent="Mozilla/5.0 (Macintosh; Intel Mac OS X 10_15_7) AppleWebKit/537.36 (KHTML, like Gecko) Chrome/124.0.0.0 Safari/537.36" etag="GU7LZUQVGQ3ihQ5o0CY1" version="24.3.1" type="github">
  <diagram id="C5RBs43oDa-KdzZeNtuy" name="Page-1">
    <mxGraphModel dx="1594" dy="766" grid="1" gridSize="10" guides="1" tooltips="1" connect="1" arrows="1" fold="1" page="1" pageScale="1" pageWidth="827" pageHeight="1169" math="0" shadow="0">
      <root>
        <mxCell id="WIyWlLk6GJQsqaUBKTNV-0" />
        <mxCell id="WIyWlLk6GJQsqaUBKTNV-1" parent="WIyWlLk6GJQsqaUBKTNV-0" />
        <mxCell id="9eDxTopMfogk6Ksq1n_R-9" style="edgeStyle=orthogonalEdgeStyle;rounded=0;orthogonalLoop=1;jettySize=auto;html=1;" edge="1" parent="WIyWlLk6GJQsqaUBKTNV-1" source="9eDxTopMfogk6Ksq1n_R-0" target="9eDxTopMfogk6Ksq1n_R-7">
          <mxGeometry relative="1" as="geometry" />
        </mxCell>
        <mxCell id="9eDxTopMfogk6Ksq1n_R-0" value="Bắt đầu" style="rounded=1;whiteSpace=wrap;html=1;" vertex="1" parent="WIyWlLk6GJQsqaUBKTNV-1">
          <mxGeometry x="90" y="90" width="120" height="60" as="geometry" />
        </mxCell>
        <mxCell id="9eDxTopMfogk6Ksq1n_R-11" value="" style="edgeStyle=orthogonalEdgeStyle;rounded=0;orthogonalLoop=1;jettySize=auto;html=1;" edge="1" parent="WIyWlLk6GJQsqaUBKTNV-1" source="9eDxTopMfogk6Ksq1n_R-7" target="9eDxTopMfogk6Ksq1n_R-10">
          <mxGeometry relative="1" as="geometry" />
        </mxCell>
        <mxCell id="9eDxTopMfogk6Ksq1n_R-7" value="Thu thập thông tin" style="rounded=0;whiteSpace=wrap;html=1;" vertex="1" parent="WIyWlLk6GJQsqaUBKTNV-1">
          <mxGeometry x="270" y="90" width="120" height="60" as="geometry" />
        </mxCell>
        <mxCell id="9eDxTopMfogk6Ksq1n_R-13" value="" style="edgeStyle=orthogonalEdgeStyle;rounded=0;orthogonalLoop=1;jettySize=auto;html=1;" edge="1" parent="WIyWlLk6GJQsqaUBKTNV-1" source="9eDxTopMfogk6Ksq1n_R-10" target="9eDxTopMfogk6Ksq1n_R-12">
          <mxGeometry relative="1" as="geometry" />
        </mxCell>
        <mxCell id="9eDxTopMfogk6Ksq1n_R-10" value="Thu thập bản đồ của site" style="rounded=0;whiteSpace=wrap;html=1;" vertex="1" parent="WIyWlLk6GJQsqaUBKTNV-1">
          <mxGeometry x="470" y="90" width="120" height="60" as="geometry" />
        </mxCell>
        <mxCell id="9eDxTopMfogk6Ksq1n_R-15" value="" style="edgeStyle=orthogonalEdgeStyle;rounded=0;orthogonalLoop=1;jettySize=auto;html=1;" edge="1" parent="WIyWlLk6GJQsqaUBKTNV-1" source="9eDxTopMfogk6Ksq1n_R-12" target="9eDxTopMfogk6Ksq1n_R-14">
          <mxGeometry relative="1" as="geometry" />
        </mxCell>
        <mxCell id="9eDxTopMfogk6Ksq1n_R-12" value="Đánh giá các bề mặt tấn công" style="rounded=0;whiteSpace=wrap;html=1;" vertex="1" parent="WIyWlLk6GJQsqaUBKTNV-1">
          <mxGeometry x="670" y="90" width="120" height="60" as="geometry" />
        </mxCell>
        <mxCell id="9eDxTopMfogk6Ksq1n_R-17" value="" style="edgeStyle=orthogonalEdgeStyle;rounded=0;orthogonalLoop=1;jettySize=auto;html=1;" edge="1" parent="WIyWlLk6GJQsqaUBKTNV-1" source="9eDxTopMfogk6Ksq1n_R-14" target="9eDxTopMfogk6Ksq1n_R-16">
          <mxGeometry relative="1" as="geometry" />
        </mxCell>
        <mxCell id="9eDxTopMfogk6Ksq1n_R-19" value="" style="edgeStyle=orthogonalEdgeStyle;rounded=0;orthogonalLoop=1;jettySize=auto;html=1;" edge="1" parent="WIyWlLk6GJQsqaUBKTNV-1" source="9eDxTopMfogk6Ksq1n_R-14" target="9eDxTopMfogk6Ksq1n_R-18">
          <mxGeometry relative="1" as="geometry" />
        </mxCell>
        <mxCell id="9eDxTopMfogk6Ksq1n_R-14" value="Có lỗ hổng bảo mật?" style="rhombus;whiteSpace=wrap;html=1;rounded=0;" vertex="1" parent="WIyWlLk6GJQsqaUBKTNV-1">
          <mxGeometry x="675" y="200" width="110" height="120" as="geometry" />
        </mxCell>
        <mxCell id="9eDxTopMfogk6Ksq1n_R-25" style="edgeStyle=orthogonalEdgeStyle;rounded=0;orthogonalLoop=1;jettySize=auto;html=1;entryX=0;entryY=0.5;entryDx=0;entryDy=0;" edge="1" parent="WIyWlLk6GJQsqaUBKTNV-1" source="9eDxTopMfogk6Ksq1n_R-16" target="9eDxTopMfogk6Ksq1n_R-18">
          <mxGeometry relative="1" as="geometry">
            <Array as="points">
              <mxPoint x="540" y="430" />
            </Array>
          </mxGeometry>
        </mxCell>
        <mxCell id="9eDxTopMfogk6Ksq1n_R-16" value="Khai thác" style="whiteSpace=wrap;html=1;rounded=0;" vertex="1" parent="WIyWlLk6GJQsqaUBKTNV-1">
          <mxGeometry x="480" y="230" width="120" height="60" as="geometry" />
        </mxCell>
        <mxCell id="9eDxTopMfogk6Ksq1n_R-21" value="" style="edgeStyle=orthogonalEdgeStyle;rounded=0;orthogonalLoop=1;jettySize=auto;html=1;" edge="1" parent="WIyWlLk6GJQsqaUBKTNV-1" source="9eDxTopMfogk6Ksq1n_R-18" target="9eDxTopMfogk6Ksq1n_R-20">
          <mxGeometry relative="1" as="geometry" />
        </mxCell>
        <mxCell id="9eDxTopMfogk6Ksq1n_R-18" value="Báo cáo" style="whiteSpace=wrap;html=1;rounded=0;" vertex="1" parent="WIyWlLk6GJQsqaUBKTNV-1">
          <mxGeometry x="670" y="400" width="120" height="60" as="geometry" />
        </mxCell>
        <mxCell id="9eDxTopMfogk6Ksq1n_R-23" value="" style="edgeStyle=orthogonalEdgeStyle;rounded=0;orthogonalLoop=1;jettySize=auto;html=1;" edge="1" parent="WIyWlLk6GJQsqaUBKTNV-1" source="9eDxTopMfogk6Ksq1n_R-20" target="9eDxTopMfogk6Ksq1n_R-22">
          <mxGeometry relative="1" as="geometry" />
        </mxCell>
        <mxCell id="9eDxTopMfogk6Ksq1n_R-20" value="Đề xuất khắc phục hoặc giải pháp" style="whiteSpace=wrap;html=1;rounded=0;" vertex="1" parent="WIyWlLk6GJQsqaUBKTNV-1">
          <mxGeometry x="670" y="510" width="120" height="60" as="geometry" />
        </mxCell>
        <mxCell id="9eDxTopMfogk6Ksq1n_R-22" value="Hoàn thành" style="whiteSpace=wrap;html=1;rounded=0;" vertex="1" parent="WIyWlLk6GJQsqaUBKTNV-1">
          <mxGeometry x="670" y="620" width="120" height="60" as="geometry" />
        </mxCell>
        <mxCell id="9eDxTopMfogk6Ksq1n_R-26" value="Có" style="text;html=1;align=center;verticalAlign=middle;whiteSpace=wrap;rounded=0;" vertex="1" parent="WIyWlLk6GJQsqaUBKTNV-1">
          <mxGeometry x="610" y="230" width="60" height="30" as="geometry" />
        </mxCell>
        <mxCell id="9eDxTopMfogk6Ksq1n_R-27" value="Không" style="text;html=1;align=center;verticalAlign=middle;whiteSpace=wrap;rounded=0;rotation=90;" vertex="1" parent="WIyWlLk6GJQsqaUBKTNV-1">
          <mxGeometry x="720" y="340" width="60" height="30" as="geometry" />
        </mxCell>
      </root>
    </mxGraphModel>
  </diagram>
</mxfile>
